# xmcd
#
# Track frame offsets:
#	150
#	10175
#	22800
#	38550
#	52187
#	65750
#	76800
#	89750
#	101175
#	114850
#	121725
#	137775
#
# Disc length: 2033 seconds
#
# Revision: 0
# Processed by: cddbd v1.4PL0 Copyright (c) Steve Scherf et al.
# Submitted via: dBpowerAMP V4.0
#
DISCID=9707ef0c
DTITLE=Mom and Dads - The Best of The Mom and Dads
DYEAR=1900
DGENRE=Country
TTITLE0=The Rangers Waltz
TTITLE1=Let Me Call You Sweetheart
TTITLE2=Rippling River Waltz
TTITLE3=The Anniversary Waltz
TTITLE4=In The Blue Canadian Rockies
TTITLE5=Blue Skirt Waltz
TTITLE6=Moonlight on the Manitoulin
TTITLE7=San Antonio Rose
TTITLE8=Somewhere My Love
TTITLE9=Wabash Cannonball
TTITLE10=Love is a Beautiful Song
TTITLE11=Amazing Grace
EXTD=
EXTT0=
EXTT1=
EXTT2=
EXTT3=
EXTT4=
EXTT5=
EXTT6=
EXTT7=
EXTT8=
EXTT9=
EXTT10=
EXTT11=
PLAYORDER=
